<?xml version="1.0" standalone="no"?>
<!DOCTYPE svg PUBLIC "-//W3C//DTD SVG 20010904//EN"
 "http://www.w3.org/TR/2001/REC-SVG-20010904/DTD/svg10.dtd">
<svg version="1.0" xmlns="http://www.w3.org/2000/svg"
 width="512.000000pt" height="512.000000pt" viewBox="0 0 512.000000 512.000000"
 preserveAspectRatio="xMidYMid meet">
<metadata>
Created by potrace 1.14, written by Peter Selinger 2001-2017
</metadata>
<g transform="translate(0.000000,512.000000) scale(0.100000,-0.100000)"
fill="#000000" stroke="none">
<path d="M2765 4905 c-89 -27 -127 -42 -169 -69 -28 -18 -239 -221 -469 -450
l-418 -418 -104 103 -104 103 1 52 c2 61 -9 78 -121 188 -67 67 -85 79 -111
78 -28 -1 -72 -40 -366 -335 -280 -280 -334 -338 -334 -362 0 -22 20 -48 92
-121 96 -98 134 -120 193 -111 30 5 39 -2 134 -97 55 -56 101 -105 101 -109 0
-5 -42 -51 -94 -103 -95 -96 -144 -170 -171 -259 -11 -37 -14 -142 -15 -491
l-1 -444 25 -25 c14 -14 30 -25 36 -25 6 0 10 -43 10 -120 0 -106 -2 -121 -18
-127 -42 -15 -52 -43 -52 -155 0 -58 3 -114 6 -123 4 -8 19 -22 35 -31 l29
-15 0 -110 c0 -107 -1 -110 -24 -119 -14 -5 -30 -18 -36 -30 -8 -14 -10 -136
-8 -398 3 -373 3 -378 26 -421 29 -54 70 -94 125 -123 l42 -23 1675 0 1675 0
44 23 c58 31 98 75 127 136 l24 51 0 2125 c0 1419 -3 2137 -10 2162 -18 63
-70 129 -130 162 l-55 31 -274 3 c-271 3 -274 3 -297 -19 -13 -12 -24 -28 -24
-36 0 -10 -26 -13 -115 -13 l-114 0 -15 29 c-9 16 -23 31 -32 35 -16 6 -698 7
-719 1z m1282 -662 l-2 -168 -699 0 c-457 0 -707 4 -720 10 -12 6 -22 22 -24
36 -2 21 20 48 129 157 l132 132 593 0 593 0 -2 -167z"/>
</g>
</svg>
